<?xml version="1.0" encoding="UTF-8"?>
<svg id="uuid-e9281039-15ca-4644-9a50-0b43924594e7" data-name="Layer 2" xmlns="http://www.w3.org/2000/svg" viewBox="0 0 399.02 481.43">
  <defs>
    <style>
      .uuid-fa0a9109-31a5-45d5-98bb-7c1b36d21f8b {
        fill: #fff;
      }

      .uuid-d98efe4e-32d6-4581-9155-57de47b82038 {
        fill: #3c3c3b;
      }
    </style>
  </defs>
  <g id="uuid-c65ac103-9fc9-49b3-ab77-a40424910ca3" data-name="Layer 1">
    <g>
      <path class="uuid-fa0a9109-31a5-45d5-98bb-7c1b36d21f8b" d="M250.74,228.95l-.14-.08-.05-.03-27.18-16.16-13.51-8.03-.11-.06h0l-8.31,13.49h0l12.81,7.62,14.5,8.62,11.11,6.6c-.1,.02-.21,.05-.31,.08-5.92,1.47-14.32,5.12-25.2,10.96-3.92,2.19-7.61,4.48-11.08,6.86-12.05,8.26-21.45,17.65-28.19,28.17l12.06,7.17,3.68,2.19c2.64-4.43,6.88-9.59,12.73-15.47,5.85-5.88,11.28-10.57,16.3-14.06,10.19-7.2,13.41-8.74,20.72-11.69,7.45-3.32,12.98-5.42,16.58-6.3l6.54-11,.51-.85-13.48-8.02Z"/>
      <path class="uuid-d98efe4e-32d6-4581-9155-57de47b82038" d="M395.29,58.91l-13.83-8.56,4.36-6.95c5.6-9.05,2.8-20.93-6.25-26.53l-22.6-13.98C353.87,.96,350.43,.03,347.03,0c-6.51-.06-12.9,3.19-16.57,9.13l-120.68,195.45,.1,.06,13.51,8.03L331.26,37.76l28.48,17.63-108.88,173.38c-.04,.07-.08,.13-.12,.19l13.48,8.01-.51,.85c.17-.26,.34-.52,.51-.79L373.11,63.65l7.24,4.48-39.83,64.37c-2.28,3.69-1.14,8.53,2.55,10.82,1.27,.78,2.67,1.17,4.06,1.18,2.66,.02,5.26-1.3,6.76-3.73l43.96-71.04c2.28-3.69,1.14-8.53-2.55-10.81m-22.83-23.78l-4.36,6.95-28.59-17.69,4.31-6.98c.98-1.58,2.6-1.69,3.07-1.69,.65,0,1.26,.19,1.82,.53l22.6,13.98c1.04,.64,1.44,1.56,1.59,2.21,.15,.65,.2,1.65-.44,2.69"/>
      <path class="uuid-d98efe4e-32d6-4581-9155-57de47b82038" d="M277.35,481.43c-5.23-1.56-113.52-27.97-118.77-29.46-2.63-.74-5.26-1.48-7.9-2.2l-3.96-1.07-3.73-.99-1.94-.59-1.99-.59-3.94-1.14-7.82-2.24c-5.2-1.5-10.37-3.01-15.53-4.56-10.32-3.09-20.57-6.34-30.69-9.84-10.12-3.51-20.13-7.25-29.84-11.48-4.85-2.12-9.62-4.35-14.22-6.77-2.3-1.21-4.56-2.47-6.74-3.79-2.19-1.32-4.3-2.69-6.3-4.14-1.99-1.45-3.87-2.97-5.5-4.55-1.63-1.58-3.02-3.24-3.9-4.8-.12-.19-.21-.39-.31-.58-.08-.19-.19-.38-.26-.56-.17-.37-.28-.72-.38-1.05-.02-.08-.04-.17-.07-.25-.02-.08-.03-.16-.05-.24-.02-.08-.03-.16-.04-.23l-.04-.22c-.02-.19-.02-.33-.01-.44,.01-.12,.03-.22,.08-.36,.05-.13,.13-.3,.26-.5,.26-.4,.75-.93,1.42-1.46,.67-.54,1.51-1.08,2.45-1.58,.93-.51,1.96-.98,3.04-1.42,2.16-.88,4.52-1.63,6.95-2.29,2.43-.65,4.94-1.21,7.48-1.7,2.54-.49,5.12-.92,7.72-1.3,5.2-.75,10.48-1.32,15.79-1.77,5.31-.45,10.65-.78,16.01-1.04,10.71-.5,21.48-.71,32.27-.74,21.58-.07,43.19,.56,64.87,1.29,5.42,.18,10.85,.37,16.33,.48,5.46,.11,10.93,.15,16.41,.11,5.47-.04,10.95-.18,16.43-.43,5.48-.24,10.97-.61,16.45-1.13,5.48-.53,10.97-1.21,16.44-2.16,2.74-.47,5.47-1.02,8.19-1.65,2.73-.64,5.45-1.36,8.15-2.24,2.7-.88,5.39-1.89,8.03-3.16,2.64-1.28,5.25-2.8,7.65-4.9,.3-.26,.59-.54,.88-.82,.29-.29,.58-.58,.85-.89,.56-.61,1.08-1.28,1.56-2,.96-1.42,1.72-3.12,2.1-4.91,.37-1.8,.35-3.67,0-5.38-.35-1.72-.98-3.28-1.73-4.69-.75-1.42-1.65-2.68-2.59-3.87-.94-1.18-1.96-2.26-3-3.28-2.09-2.04-4.32-3.82-6.61-5.47-2.29-1.64-4.65-3.15-7.04-4.57-2.39-1.42-4.83-2.74-7.29-3.99-4.92-2.5-9.94-4.74-15.01-6.81-2.54-1.04-5.08-2.03-7.64-2.99-1.28-.48-2.57-.94-3.85-1.4l-1.95-.68-.98-.34-.98-.32c-5.24-1.7-10.54-3.09-15.88-4.3-5.33-1.19-10.7-2.21-16.08-3.08-2.69-.43-5.38-.84-8.08-1.2-1.32-.18-2.64-.35-3.95-.52l2.29-3.85h0l-3.68-2.19-12.05-7.17c6.74-10.52,16.14-19.91,28.19-28.17l10.98-33.12-12.81-7.62-26.36,68.91-6.83,11.3h-.13l-.02,.25-1.36,2.26,14.82,.71c.85,.13,1.69,.26,2.53,.39,5.34,.85,10.67,1.79,15.95,2.89,5.29,1.08,10.55,2.3,15.75,3.69,1.3,.36,2.6,.7,3.89,1.08,1.29,.36,2.58,.76,3.86,1.15,2.56,.8,5.11,1.63,7.61,2.57l.94,.34,.93,.36,1.87,.73c1.25,.5,2.5,1.01,3.74,1.53,2.48,1.04,4.95,2.1,7.4,3.2,4.9,2.21,9.71,4.57,14.38,7.15,4.65,2.59,9.18,5.39,13.31,8.56,2.06,1.59,4.01,3.28,5.75,5.08,1.73,1.8,3.25,3.75,4.23,5.74,.49,.99,.84,1.99,.99,2.94,.08,.48,.12,.94,.1,1.39-.01,.45-.07,.88-.17,1.31-.11,.43-.26,.84-.45,1.26-.09,.21-.21,.41-.33,.62-.13,.2-.25,.41-.4,.61-.29,.4-.61,.79-.98,1.17-.18,.19-.38,.38-.57,.56-.21,.18-.41,.37-.62,.54-1.73,1.43-3.87,2.62-6.14,3.63-2.28,1.01-4.7,1.85-7.18,2.57-4.97,1.43-10.16,2.43-15.39,3.18-5.24,.75-10.55,1.27-15.88,1.63-5.33,.36-10.68,.57-16.04,.67-5.36,.1-10.73,.09-16.11,0-5.37-.09-10.75-.27-16.13-.51-5.37-.25-10.77-.56-16.19-.87-10.83-.62-21.69-1.21-32.56-1.7-10.87-.47-21.76-.85-32.68-1.03-10.91-.18-21.84-.19-32.81,.12-5.48,.16-10.98,.4-16.48,.77-5.51,.37-11.03,.86-16.57,1.56-5.55,.71-11.12,1.62-16.76,3.03-2.82,.71-5.66,1.55-8.54,2.67-1.44,.56-2.89,1.2-4.35,1.96-1.46,.76-2.94,1.65-4.41,2.77-1.47,1.13-2.95,2.5-4.24,4.34-.64,.92-1.23,1.94-1.69,3.07-.46,1.12-.8,2.34-.97,3.56-.18,1.23-.19,2.45-.08,3.61,.03,.28,.06,.52,.1,.79,.03,.26,.07,.52,.12,.77,.05,.25,.09,.51,.15,.76l.18,.74c.26,.97,.57,1.92,.94,2.79,.18,.45,.38,.87,.57,1.3,.21,.41,.41,.83,.63,1.22,.88,1.59,1.86,3.02,2.9,4.32,1.04,1.31,2.12,2.5,3.24,3.61,2.23,2.23,4.56,4.15,6.93,5.92,2.37,1.77,4.78,3.38,7.22,4.9,2.44,1.52,4.9,2.93,7.39,4.28,4.96,2.7,9.99,5.13,15.06,7.42,10.14,4.56,20.41,8.55,30.75,12.26,10.34,3.7,20.75,7.11,31.18,10.35,5.22,1.62,10.44,3.19,15.66,4.74l7.81,2.31,3.87,1.15,1.91,.58,1.95,.61,8.01,2.22c2.59,.73,5.18,1.46,7.76,2.21,5.17,1.5,10.34,3.03,15.49,4.61,10.3,3.15,20.56,6.43,30.73,9.9"/>
    </g>
  </g>
</svg>