<?xml version="1.0" encoding="UTF-8"?> <svg xmlns="http://www.w3.org/2000/svg" viewBox="0 0 343.88 293.13"><defs><style>.cls-1{isolation:isolate;}.cls-2{fill:#fff;}.cls-3{fill:#5c6a86;}.cls-4{fill:#efeff0;}.cls-5{fill:#4b4b4b;}.cls-6{fill:#dee1e7;}.cls-7{opacity:0.1;mix-blend-mode:multiply;}.cls-8{opacity:0.25;}.cls-9{fill:#62ab38;}.cls-10{fill:#39a636;}</style></defs><g class="cls-1"><g id="Layer_2" data-name="Layer 2"><g id="Layer_1-2" data-name="Layer 1"><path class="cls-2" d="M61.06,278.75c-19.19,3.3-48.42-.7-53.33-26.9-6.07-32.43,7.84-45.29,21.94-54.39,10.23-6.59,22.49-9.75,32.13-17.18,29.27-22.56,23-73.84,53.31-94.93,13.23-9.19,30.48-10.14,46.53-8.75s4,22.83,18.15,15.09c27.41-15,50.5-35.09,59-41.54,82.92-63,127.36,55.62,93.9,89.69-14.21,14.47-22.42,34.15-26.71,54-3.8,17.59-4.57,37.67-17.74,50-10.14,9.46-25.06,11.51-38.93,11.67S221.12,254.39,208,259c-27.09,9.62-31.73,30.85-60.72,33.74C112.09,296.29,99.06,272.22,61.06,278.75Z"></path><path class="cls-2" d="M69,245.79A2.84,2.84,0,1,1,66.17,243,2.84,2.84,0,0,1,69,245.79Z"></path><path class="cls-3" d="M66.17,249.54a3.75,3.75,0,1,1,3.75-3.75A3.75,3.75,0,0,1,66.17,249.54Zm0-5.67a1.93,1.93,0,1,0,1.92,1.92A1.93,1.93,0,0,0,66.17,243.87Z"></path><path class="cls-4" d="M84.3,237.21s12.31-8.79,31.06-3.71a61.72,61.72,0,0,0,31.45,0c17.58-4.49,21.29-1.58,21.29-1.58s4.89,2.56,3.72,10c0,0,28.51-12.49,41.63-12.21a6.5,6.5,0,0,1,5.18,2.61,3.6,3.6,0,0,1-.32,5.11s-13.15,8.4-23.47,14.06c0,0-22.05,11.92-32.6,15.43s-20.9,10.94-20.9,10.94-4.69,2.35-11.91,0c0,0-22.47-9.18-38.68-3.12Z"></path><path class="cls-5" d="M135.71,279.8a21.36,21.36,0,0,1-6.57-1.09c-.28-.11-22.39-9-38.08-3.14a.94.94,0,0,1-.77-.06.92.92,0,0,1-.44-.64L83.4,237.36a.89.89,0,0,1,.37-.89c.51-.37,12.88-9,31.83-3.85a61.46,61.46,0,0,0,31,0c17.52-4.47,21.67-1.74,22.09-1.41.07,0,4.6,2.48,4.22,9.24,6-2.55,29-12,40.58-11.67a7.45,7.45,0,0,1,5.9,3,4.48,4.48,0,0,1-.41,6.28c-.29.21-13.45,8.6-23.68,14.22-.91.49-22.24,12-32.75,15.5-10.29,3.43-20.55,10.74-20.66,10.81A14.1,14.1,0,0,1,135.71,279.8Zm-32.11-8.08c13.06,0,25.48,5,26.17,5.28,6.68,2.16,11.12.05,11.17,0,.3-.23,10.46-7.47,21-11,10.35-3.45,32.23-15.25,32.45-15.37,10.17-5.59,23.28-13.95,23.41-14,1.05-1.09,1.12-2.34.07-3.81a5.63,5.63,0,0,0-4.46-2.23H213c-13,0-40.56,12-40.84,12.13a.88.88,0,0,1-.92-.11.89.89,0,0,1-.34-.86c1-6.64-3.07-8.94-3.24-9s-4.09-2.57-20.64,1.66c-17.64,4.51-31.39.17-32,0-16-4.34-27.38,1.8-29.78,3.28l6.16,35.85A38.6,38.6,0,0,1,103.6,271.72Z"></path><polygon class="cls-6" points="58.28 236.23 75.48 232.56 84.85 283.12 58.28 287.42 58.28 236.23"></polygon><path class="cls-5" d="M58.28,288.33a.9.9,0,0,1-.59-.22.89.89,0,0,1-.32-.69V236.23a.91.91,0,0,1,.72-.89l17.2-3.67a1,1,0,0,1,.7.13,1,1,0,0,1,.39.6L85.74,283A.92.92,0,0,1,85,284l-26.57,4.3ZM59.19,237v49.37l24.59-4-9-48.72Z"></path><path class="cls-5" d="M119.66,256.51a.81.81,0,0,1-.23-1.58c4.48-1.31,16.55-1.47,23.34-1.49h0a28.71,28.71,0,0,0,9.94-1.66,61.53,61.53,0,0,0,18.54-10.48.81.81,0,1,1,1.09,1.2c-.29.26-7.13,6.4-19.07,10.8a30.48,30.48,0,0,1-10.5,1.75h-.27c-6.75,0-18.4.19-22.64,1.43A.83.83,0,0,1,119.66,256.51Z"></path><path class="cls-2" d="M166,236.88a4.71,4.71,0,0,0-6.32-2.06l-4.77,2.43,4.26,8.37L164,243.2A4.7,4.7,0,0,0,166,236.88Z"></path><path class="cls-5" d="M159.2,246.54a.87.87,0,0,1-.28,0,.91.91,0,0,1-.53-.45l-4.26-8.38a.92.92,0,0,1-.06-.69.9.9,0,0,1,.46-.53L159.3,234a5.61,5.61,0,1,1,5.08,10l-4.77,2.43A1,1,0,0,1,159.2,246.54Zm-3-8.89,3.43,6.75,4-2a3.8,3.8,0,0,0,1.66-5.09h0a3.79,3.79,0,0,0-5.09-1.66Z"></path><g class="cls-7"><path class="cls-5" d="M218.63,232.3a6.27,6.27,0,0,0-2.57-2,3.44,3.44,0,0,1-1,3.9s-13.14,8.4-23.47,14.07c0,0-22,11.91-32.59,15.43s-20.9,10.94-20.9,10.94-4.69,2.34-11.92,0c0,0-20.23-8.26-36.15-3.93l.7,4c16.21-6.06,38.68,3.12,38.68,3.12,7.22,2.35,11.91,0,11.91,0s10.36-7.42,20.9-10.94,32.6-15.43,32.6-15.43c10.32-5.66,23.47-14.06,23.47-14.06A3.6,3.6,0,0,0,218.63,232.3Z"></path></g><polygon class="cls-2" points="75.66 233.89 83.48 232.52 91.49 277.06 84.06 278.88 75.66 233.89"></polygon><path class="cls-5" d="M84.06,279.8a.89.89,0,0,1-.5-.15.91.91,0,0,1-.4-.6l-8.39-45a.9.9,0,0,1,.74-1.07l7.81-1.37a.93.93,0,0,1,1.06.74l8,44.54a.93.93,0,0,1-.68,1.05l-7.44,1.82A.76.76,0,0,1,84.06,279.8Zm-7.33-45.17,8,43.14,5.66-1.39-7.7-42.8Z"></path><path class="cls-2" d="M71.25,271.9a4,4,0,1,0,4,4A4,4,0,0,0,71.25,271.9Z"></path><path class="cls-5" d="M71.25,280.89a4.95,4.95,0,1,1,5-4.95A5,5,0,0,1,71.25,280.89Zm0-8.08a3.13,3.13,0,1,0,3.13,3.13A3.13,3.13,0,0,0,71.25,272.81Z"></path><g class="cls-8"><rect class="cls-5" x="94.21" y="126.88" width="150.49" height="82.79" rx="14.65" transform="translate(-35.91 46.38) rotate(-14.11)"></rect></g><g class="cls-8"><rect class="cls-5" x="77.46" y="72.15" width="82.79" height="150.49" rx="13.38" transform="matrix(0.19, -0.98, 0.98, 0.19, -48.39, 236.16)"></rect></g><g class="cls-8"><rect class="cls-5" x="100.51" y="81.57" width="150.49" height="82.79" rx="13.38" transform="translate(-3.27 4.82) rotate(-1.56)"></rect></g><rect class="cls-2" x="105.33" y="78.47" width="150.49" height="82.79" rx="10.19" transform="translate(-3.26 5.06) rotate(-1.59)"></rect><path class="cls-5" d="M116.4,164.06a11.2,11.2,0,0,1-11.18-10.88l-1.73-62.39A11.19,11.19,0,0,1,114.36,79.3l130.06-3.62a11.24,11.24,0,0,1,11.5,10.87l1.73,62.39a11.21,11.21,0,0,1-10.87,11.5l-130.06,3.61ZM244.48,77.68,114.42,81.3a9.19,9.19,0,0,0-8.93,9.44l1.73,62.38a9.19,9.19,0,0,0,9.44,8.93l130.06-3.61a9.2,9.2,0,0,0,8.93-9.44l-1.73-62.39a9.17,9.17,0,0,0-9.44-8.93Z"></path><path class="cls-6" d="M246.18,129.91l-.66-23.71a19.35,19.35,0,0,1-19.88-18.8l-91.38,2.54a19.33,19.33,0,0,1-18.8,19.87l.66,23.71A19.36,19.36,0,0,1,136,152.33l91.38-2.54A19.34,19.34,0,0,1,246.18,129.91Z"></path><circle class="cls-9" cx="148.5" cy="120.76" r="5.44"></circle><path class="cls-9" d="M148.5,127.2a6.44,6.44,0,1,1,6.44-6.62h0a6.46,6.46,0,0,1-6.26,6.62Zm0-10.88h-.12a4.44,4.44,0,1,0,4.56,4.32h0a4.46,4.46,0,0,0-4.44-4.32Z"></path><circle class="cls-9" cx="212.64" cy="118.98" r="5.44"></circle><path class="cls-9" d="M212.63,125.41a6.45,6.45,0,0,1-6.43-6.25,6.44,6.44,0,1,1,12.88-.36h0a6.45,6.45,0,0,1-6.26,6.61Zm0-10.87h-.12a4.44,4.44,0,1,0,.24,8.87,4.45,4.45,0,0,0,4.32-4.56h0A4.45,4.45,0,0,0,212.64,114.54Z"></path><ellipse class="cls-9" cx="180.57" cy="119.87" rx="20.65" ry="28.19" transform="translate(-3.26 5.06) rotate(-1.59)"></ellipse><path class="cls-5" d="M180.93,149.05c-11.74,0-21.56-12.7-22-28.58-.44-16.09,8.9-29.45,20.84-29.78s22,12.49,22.46,28.58A34.88,34.88,0,0,1,196.55,140c-3.94,5.7-9.33,8.93-15.17,9.09Zm-.71-56.36h-.41c-10.83.3-19.3,12.74-18.89,27.72s9.56,26.93,20.41,26.63c5.18-.14,10-3.06,13.57-8.22a32.89,32.89,0,0,0,5.32-19.5C199.8,104.52,190.87,92.69,180.22,92.69Z"></path><path class="cls-5" d="M175.32,116.19a12.07,12.07,0,0,1-1.8-5.17,6.86,6.86,0,0,1,.4-2.57,5.44,5.44,0,0,1,1.42-2.11,7.16,7.16,0,0,1,2.42-1.47,10.57,10.57,0,0,1,3.44-.61,8.69,8.69,0,0,1,5.91,1.64q2.13,1.74,2.31,5.75l-4.85.13a8.24,8.24,0,0,0-.19-1.6,4.2,4.2,0,0,0-.51-1.3A2.47,2.47,0,0,0,183,108a2.55,2.55,0,0,0-1.37-.29,2.83,2.83,0,0,0-2.38,1,3.26,3.26,0,0,0-.63,2,7.06,7.06,0,0,0,.26,1.31,10.51,10.51,0,0,0,.79,2l1.09,2.06,6.14-.17.08,3-5.18.14a4.52,4.52,0,0,1,.22,1.43,5.79,5.79,0,0,1-.65,2.92,11.31,11.31,0,0,1-2.5,2.9l.15.07a4.56,4.56,0,0,1,.71-.18,6.19,6.19,0,0,1,.94-.12,3,3,0,0,1,.9.14c.36.1.73.22,1.12.36s.76.25,1.15.35a4.11,4.11,0,0,0,1,.14,5.21,5.21,0,0,0,1.59-.42,10.86,10.86,0,0,0,2.19-1.23l1.71,3.41a10.45,10.45,0,0,1-5.43,1.8,6.16,6.16,0,0,1-1.47-.16l-1.71-.36-1.79-.35a8.2,8.2,0,0,0-1.75-.16,6.11,6.11,0,0,0-1.7.29c-.53.17-1.15.42-1.88.73l-1.59-3a10.83,10.83,0,0,0,3-3,6.16,6.16,0,0,0,1.09-3.62,4.93,4.93,0,0,0-.45-1.79l-3.75.1-.09-3Z"></path><path class="cls-5" d="M109.41,101.38a17.65,17.65,0,0,1-4.8-.66l-.35-.1L104,90.71a10.69,10.69,0,0,1,10.39-11l12.29-.34.09.4a17.72,17.72,0,0,1-16.84,21.58Zm-4.17-1.53a16.48,16.48,0,0,0,4.65.52,16.77,16.77,0,0,0,16.28-17.21,17.55,17.55,0,0,0-.31-2.75l-11.46.32a9.7,9.7,0,0,0-9.42,10Z"></path><path class="cls-9" d="M104.48,90.7l.27,9.54A17.22,17.22,0,0,0,126.26,79.9l-11.88.33A10.2,10.2,0,0,0,104.48,90.7Z"></path><path class="cls-5" d="M109.41,101.88a18.22,18.22,0,0,1-4.93-.68l-.71-.2-.29-10.27a11.2,11.2,0,0,1,10.88-11.5l12.7-.35.18.81a18.5,18.5,0,0,1,.43,3.43,18.27,18.27,0,0,1-17.74,18.75Zm-3.68-2.42a16.28,16.28,0,0,0,19.94-16.29,16,16,0,0,0-.23-2.25l-11,.31a9.19,9.19,0,0,0-8.93,9.44Z"></path><path class="cls-9" d="M116.63,163.06l9.54-.27a17.49,17.49,0,0,0,.63-5.15,17.21,17.21,0,0,0-21-16.36l.33,11.87A10.19,10.19,0,0,0,116.63,163.06Z"></path><path class="cls-5" d="M116.33,164.06a11.18,11.18,0,0,1-11.17-10.88l-.35-12.7.8-.18a18.71,18.71,0,0,1,3.43-.43h.52a18.28,18.28,0,0,1,18.24,17.75,18.48,18.48,0,0,1-.67,5.45l-.2.71-10.28.28Zm-9.48-22,.31,11a9.19,9.19,0,0,0,9.44,8.93h0l8.78-.25a16,16,0,0,0,.42-4.14,16.29,16.29,0,0,0-16.7-15.8A17.48,17.48,0,0,0,106.85,142.09Z"></path><path class="cls-9" d="M256.59,149l-.26-9.54a17.28,17.28,0,0,0-21.93,17.1,18.17,18.17,0,0,0,.41,3.24l11.88-.33A10.19,10.19,0,0,0,256.59,149Z"></path><path class="cls-5" d="M234,160.79l-.18-.81a19.39,19.39,0,0,1-.43-3.42,18.28,18.28,0,0,1,23.2-18.09l.71.2.28,10.27a11.2,11.2,0,0,1-10.87,11.5Zm17.65-21h-.46a16.28,16.28,0,0,0-15.8,16.7,17.51,17.51,0,0,0,.23,2.25l11-.31a9.19,9.19,0,0,0,8.93-9.44l-.24-8.79A16.31,16.31,0,0,0,251.66,139.79Z"></path><path class="cls-9" d="M244.45,76.62l-9.54.26A17.26,17.26,0,0,0,255.25,98.4l-.33-11.88A10.19,10.19,0,0,0,244.45,76.62Z"></path><path class="cls-5" d="M251.52,99.81a18.29,18.29,0,0,1-18.25-17.75,18.52,18.52,0,0,1,.67-5.45l.2-.71,10.28-.28h.31a11.21,11.21,0,0,1,11.19,10.88l.35,12.7-.81.18a17.78,17.78,0,0,1-3.43.43Zm-15.83-22a16,16,0,0,0-.42,4.15A16.28,16.28,0,0,0,252,97.8a15.87,15.87,0,0,0,2.24-.22l-.3-11a9.21,9.21,0,0,0-9.19-8.94h-.25Z"></path><path class="cls-10" d="M113.16,133.19a1,1,0,0,1-1-1l-.66-23.91a1,1,0,0,1,1-1h0a1,1,0,0,1,1,1l.66,23.91a1,1,0,0,1-1,1Z"></path><path class="cls-10" d="M138.3,157.05a1,1,0,0,1,0-2l86.47-2.4a1,1,0,0,1,1,1,1,1,0,0,1-1,1l-86.48,2.4Z"></path><rect class="cls-2" x="82.52" y="69.49" width="82.79" height="150.49" rx="10.19" transform="translate(-42.45 237.6) rotate(-78.6)"></rect><path class="cls-5" d="M181.54,199.37a11.24,11.24,0,0,1-2.23-.22L51.77,173.44A11.2,11.2,0,0,1,43,160.26L55.34,99.07a11.21,11.21,0,0,1,13.18-8.75L196.07,116a11.2,11.2,0,0,1,8.75,13.18l-12.33,61.18a11.2,11.2,0,0,1-11,9ZM66.31,92.1a9.21,9.21,0,0,0-9,7.37L45,160.65a9.18,9.18,0,0,0,7.19,10.82L179.7,197.19A9.2,9.2,0,0,0,190.53,190l12.33-61.18A9.2,9.2,0,0,0,195.67,118L68.13,92.28A9.44,9.44,0,0,0,66.31,92.1Z"></path><path class="cls-6" d="M185.59,169.27,190.28,146a19.33,19.33,0,0,1-15.14-22.78L85.52,105.16A19.34,19.34,0,0,1,62.74,120.3l-4.69,23.25a19.35,19.35,0,0,1,15.14,22.79l89.61,18.07A19.34,19.34,0,0,1,185.59,169.27Z"></path><circle class="cls-9" cx="92.47" cy="138.39" r="5.44"></circle><path class="cls-9" d="M92.47,144.83a7,7,0,0,1-1.28-.12,6.44,6.44,0,0,1,2.55-12.63,6.44,6.44,0,0,1-1.27,12.75Zm0-10.87a4.43,4.43,0,1,0,4.35,5.31h0A4.46,4.46,0,0,0,93.34,134,4.27,4.27,0,0,0,92.47,134Z"></path><circle class="cls-9" cx="155.36" cy="151.07" r="5.44"></circle><path class="cls-9" d="M155.37,157.51a7,7,0,0,1-1.28-.12,6.48,6.48,0,1,1,1.28.12Zm0-10.87a4.43,4.43,0,1,0,4.36,5.31h0a4.41,4.41,0,0,0-4.36-5.31Z"></path><ellipse class="cls-9" cx="123.92" cy="144.73" rx="28.19" ry="20.65" transform="translate(-42.45 237.6) rotate(-78.6)"></ellipse><path class="cls-5" d="M121.41,173.67a17.07,17.07,0,0,1-3.26-.32c-11.71-2.36-18.64-17.12-15.46-32.9s15.29-26.68,27-24.33c5.73,1.16,10.49,5.26,13.4,11.54A34.85,34.85,0,0,1,145.14,149h0A34.87,34.87,0,0,1,135,167.9C130.82,171.68,126.1,173.67,121.41,173.67Zm5-55.87c-9.68,0-19.09,9.67-21.79,23-3,14.7,3.27,28.39,13.89,30.53,5.1,1,10.45-.73,15.08-5a32.89,32.89,0,0,0,9.56-17.8h0a32.78,32.78,0,0,0-1.92-20.12c-2.63-5.69-6.88-9.39-12-10.42A14.49,14.49,0,0,0,126.44,117.8Z"></path><path class="cls-5" d="M119.62,140a12.24,12.24,0,0,1-.59-5.44,6.84,6.84,0,0,1,1-2.41,5.45,5.45,0,0,1,1.85-1.75,7.29,7.29,0,0,1,2.69-.88,10.59,10.59,0,0,1,3.49.18,8.69,8.69,0,0,1,5.39,2.92q1.68,2.17,1,6.12l-4.76-1a9,9,0,0,0,.18-1.59,4.38,4.38,0,0,0-.21-1.4,2.47,2.47,0,0,0-.69-1,2.64,2.64,0,0,0-1.27-.6,2.84,2.84,0,0,0-2.53.41,3.25,3.25,0,0,0-1.07,1.83,6.32,6.32,0,0,0,0,1.34,9.47,9.47,0,0,0,.33,2.09l.59,2.26,6,1.21-.6,3-5.08-1a4.48,4.48,0,0,1-.1,1.45,5.78,5.78,0,0,1-1.3,2.7,11.14,11.14,0,0,1-3.08,2.26l.13.11a4.41,4.41,0,0,1,.74,0,7.16,7.16,0,0,1,.93.1,3.06,3.06,0,0,1,.85.34c.33.18.66.38,1,.6s.69.42,1,.6a3.79,3.79,0,0,0,1,.37,5.13,5.13,0,0,0,1.64,0,10.87,10.87,0,0,0,2.42-.72l.9,3.71a10.52,10.52,0,0,1-5.7.54,6.19,6.19,0,0,1-1.4-.49l-1.58-.73-1.66-.75a8,8,0,0,0-1.68-.54,6,6,0,0,0-1.72-.11c-.55,0-1.21.15-2,.3l-.87-3.29a10.89,10.89,0,0,0,3.62-2.26,6.19,6.19,0,0,0,1.88-3.27,5.07,5.07,0,0,0,0-1.85l-3.68-.74.6-2.95Z"></path><path class="cls-5" d="M62.74,111.18a17.48,17.48,0,0,1-3.51-.35,17.67,17.67,0,0,1-5-1.83l-.33-.17,2-9.72a10.69,10.69,0,0,1,12.59-8.37l12.06,2.43v.42a18.09,18.09,0,0,1-.34,3.34A17.79,17.79,0,0,1,62.74,111.18ZM55,108.3A16.77,16.77,0,0,0,79.16,96.73,16.06,16.06,0,0,0,79.47,94L68.23,91.72a9.7,9.7,0,0,0-11.41,7.59Z"></path><path class="cls-9" d="M56.33,99.21l-1.88,9.35a17,17,0,0,0,4.87,1.78A17.21,17.21,0,0,0,80,93.58L68.33,91.23A10.19,10.19,0,0,0,56.33,99.21Z"></path><path class="cls-5" d="M62.74,111.68a18.57,18.57,0,0,1-3.61-.36A18.35,18.35,0,0,1,54,109.44l-.65-.35,2-10.08a11.21,11.21,0,0,1,13.18-8.76L81,92.77v.82a18.2,18.2,0,0,1-18.24,18.09ZM55.58,108A16.25,16.25,0,0,0,78.67,96.64,16.13,16.13,0,0,0,79,94.4L68.14,92.21a9.2,9.2,0,0,0-10.83,7.2Z"></path><path class="cls-9" d="M51.9,172.44l9.35,1.89A17,17,0,0,0,63,169.45a17.25,17.25,0,0,0-16.76-20.66l-2.34,11.65A10.17,10.17,0,0,0,51.9,172.44Z"></path><path class="cls-5" d="M61.78,175.45l-10.08-2a11.21,11.21,0,0,1-8.76-13.18l2.52-12.46h.82a17.6,17.6,0,0,1,3.44.36,18.26,18.26,0,0,1,12.41,26.66Zm-9.68-4,8.61,1.74a16.26,16.26,0,0,0-11.38-23.09,14.91,14.91,0,0,0-2.24-.29l-2.18,10.82a9.18,9.18,0,0,0,7.19,10.82Z"></path><path class="cls-9" d="M191.45,190.18l1.88-9.35a17,17,0,0,0-4.87-1.78,17.21,17.21,0,0,0-20.66,16.76l11.65,2.35A10.19,10.19,0,0,0,191.45,190.18Z"></path><path class="cls-5" d="M181.46,199.36a11.12,11.12,0,0,1-2.21-.22l-12.46-2.52v-.82a18.4,18.4,0,0,1,.35-3.44A18.26,18.26,0,0,1,193.81,180l.65.35-2,10.08A11.22,11.22,0,0,1,181.46,199.36ZM168.83,195l10.82,2.19a9.2,9.2,0,0,0,10.82-7.2l1.74-8.61a16.59,16.59,0,0,0-4-1.34,16.27,16.27,0,0,0-19.15,12.72A16.52,16.52,0,0,0,168.83,195Z"></path><path class="cls-9" d="M195.88,117l-9.35-1.89a17,17,0,0,0-1.78,4.88,17.26,17.26,0,0,0,16.76,20.66L203.86,129A10.19,10.19,0,0,0,195.88,117Z"></path><path class="cls-5" d="M202.32,141.61h-.82a17.52,17.52,0,0,1-3.44-.36,18.27,18.27,0,0,1-14.29-21.5,18.46,18.46,0,0,1,1.88-5.16l.35-.64,10.08,2a11.18,11.18,0,0,1,8.76,13.18Zm-15.25-25.42a16.26,16.26,0,0,0,11.38,23.09,14.74,14.74,0,0,0,2.24.29l2.18-10.82a9.18,9.18,0,0,0-7.19-10.82Z"></path><path class="cls-10" d="M188.73,169.46l-.2,0a1,1,0,0,1-.78-1.18l4.73-23.45a1,1,0,1,1,2,.4l-4.73,23.44A1,1,0,0,1,188.73,169.46Z"></path><rect class="cls-2" x="97.68" y="121.19" width="150.49" height="82.79" rx="10.19" transform="translate(-34.04 46.39) rotate(-13.92)"></rect><path class="cls-5" d="M117.26,219.72a11.19,11.19,0,0,1-10.83-8.5l-15-60.57a11.19,11.19,0,0,1,8.16-13.56l126.29-31.31A11.2,11.2,0,0,1,239.41,114l15,60.58a11.19,11.19,0,0,1-8.17,13.55L120,219.39A11.44,11.44,0,0,1,117.26,219.72Zm109.08-112L100.05,139a9.2,9.2,0,0,0-6.7,11.13l15,60.58a9.18,9.18,0,0,0,11.13,6.71l126.28-31.31A9.2,9.2,0,0,0,252.49,175l-15-60.58a9.2,9.2,0,0,0-11.13-6.7Z"></path><circle class="cls-9" cx="141.78" cy="170.31" r="5.44"></circle><path class="cls-9" d="M141.77,176.75a6.47,6.47,0,0,1-6.24-4.89,6.4,6.4,0,0,1,.74-4.87,6.33,6.33,0,0,1,4-2.93,6.44,6.44,0,1,1,1.54,12.69Zm0-10.88a4.44,4.44,0,1,0,4.31,3.37A4.41,4.41,0,0,0,141.78,165.87Z"></path><circle class="cls-9" cx="204.06" cy="154.87" r="5.44"></circle><path class="cls-9" d="M204.05,161.31a6.45,6.45,0,0,1-6.24-4.89,6.44,6.44,0,1,1,6.24,4.89Zm0-10.88a4.44,4.44,0,1,0,1.07,8.75,4.44,4.44,0,0,0-1.07-8.75Z"></path><ellipse class="cls-9" cx="172.92" cy="162.59" rx="20.65" ry="28.19" transform="translate(-34.04 46.39) rotate(-13.92)"></ellipse><path class="cls-5" d="M176,191.4a20.5,20.5,0,0,1-13.06-5.18,34.88,34.88,0,0,1-11-18.42c-3.87-15.62,2.41-30.67,14-33.54s24.16,7.5,28,23.12a34.83,34.83,0,0,1-1.13,21.42c-2.62,6.41-7.2,10.71-12.87,12.12A16.73,16.73,0,0,1,176,191.4Zm-6.11-55.62a14.64,14.64,0,0,0-3.47.42c-10.52,2.61-16.14,16.57-12.54,31.12a32.87,32.87,0,0,0,10.34,17.36c4.82,4,10.24,5.55,15.28,4.3S188.58,183.84,191,178a32.82,32.82,0,0,0,1-20.18C188.78,144.9,179.32,135.78,169.85,135.78Z"></path><path class="cls-5" d="M167,160.12a12.11,12.11,0,0,1-2.86-4.67,6.71,6.71,0,0,1-.15-2.59,5.51,5.51,0,0,1,.93-2.37,7.25,7.25,0,0,1,2.05-2,10.3,10.3,0,0,1,3.23-1.33,8.69,8.69,0,0,1,6.13.33c1.63.84,2.79,2.54,3.48,5.12l-4.71,1.17a8,8,0,0,0-.53-1.52,3.93,3.93,0,0,0-.78-1.16,2.46,2.46,0,0,0-1.07-.67,2.66,2.66,0,0,0-1.4,0,2.83,2.83,0,0,0-2.12,1.45,3.21,3.21,0,0,0-.18,2.11,6.21,6.21,0,0,0,.53,1.23,9.88,9.88,0,0,0,1.19,1.75l1.51,1.79,6-1.48.72,2.93-5,1.25a4.4,4.4,0,0,1,.52,1.34,5.75,5.75,0,0,1,0,3,11.46,11.46,0,0,1-1.82,3.37l.16,0a4.81,4.81,0,0,1,.66-.33,5.41,5.41,0,0,1,.89-.32,3.54,3.54,0,0,1,.91-.05c.37,0,.76.06,1.16.11s.81.08,1.2.1a4.32,4.32,0,0,0,1.06-.09,4.92,4.92,0,0,0,1.46-.75,10.55,10.55,0,0,0,1.88-1.67l2.4,3a10.46,10.46,0,0,1-4.92,2.93,6,6,0,0,1-1.47.15l-1.74,0-1.83,0a7.4,7.4,0,0,0-1.74.22,6.09,6.09,0,0,0-1.61.64c-.47.28-1,.66-1.67,1.12l-2.2-2.6a10.65,10.65,0,0,0,2.31-3.59,6.14,6.14,0,0,0,.3-3.76,5,5,0,0,0-.82-1.65l-3.64.9-.73-2.93Z"></path><path class="cls-5" d="M95.66,160.13c-.35,0-.69,0-1,0l-.36,0-2.39-9.62a10.69,10.69,0,0,1,7.8-12.94l11.94-3,.17.37a18.2,18.2,0,0,1,1.12,3.17,17.75,17.75,0,0,1-17.24,22Zm-.61-1a16.75,16.75,0,0,0,16.88-20.78,15.78,15.78,0,0,0-.89-2.61l-11.13,2.76a9.7,9.7,0,0,0-7.07,11.73Z"></path><path class="cls-9" d="M92.36,150.34l2.29,9.27a17.3,17.3,0,0,0,17.77-21.39,17.56,17.56,0,0,0-1.09-3.08L99.79,138A10.18,10.18,0,0,0,92.36,150.34Z"></path><path class="cls-5" d="M95.66,160.63c-.36,0-.71,0-1.06,0l-.74,0-2.47-10A11.2,11.2,0,0,1,99.55,137L111.89,134l.35.75a19.23,19.23,0,0,1,1.15,3.26,18.27,18.27,0,0,1-17.73,22.65Zm-.22-2a16.21,16.21,0,0,0,15.31-22.31L100,139a9.2,9.2,0,0,0-6.7,11.13Z"></path><path class="cls-9" d="M119.67,218.44l9.27-2.3a17.26,17.26,0,0,0-21.39-17.76,16.79,16.79,0,0,0-3.08,1.09L107.33,211A10.2,10.2,0,0,0,119.67,218.44Z"></path><path class="cls-5" d="M117.22,219.74a11.21,11.21,0,0,1-10.86-8.5L103.3,198.9l.76-.34a18.25,18.25,0,0,1,25.37,12.17,18.34,18.34,0,0,1,.5,5.47l0,.73-10,2.48A11.31,11.31,0,0,1,117.22,219.74Zm-11.57-19.69,2.65,10.71a9.21,9.21,0,0,0,11.13,6.71l8.53-2.12a16.24,16.24,0,0,0-20.16-16A14.56,14.56,0,0,0,105.65,200.05Z"></path><path class="cls-9" d="M253.4,174.79l-2.3-9.27a17.27,17.27,0,0,0-17.76,21.38,17.66,17.66,0,0,0,1.09,3.09L246,187.13A10.18,10.18,0,0,0,253.4,174.79Z"></path><path class="cls-5" d="M233.87,191.15l-.35-.75a18.64,18.64,0,0,1-1.15-3.26A18.25,18.25,0,0,1,245.7,165a18.62,18.62,0,0,1,5.46-.51l.74,0,2.47,10a11.2,11.2,0,0,1-8.17,13.55Zm16.23-24.66a16.27,16.27,0,0,0-15.79,20.17,15.84,15.84,0,0,0,.7,2.15l10.71-2.65A9.2,9.2,0,0,0,252.43,175l-2.11-8.54Z"></path><path class="cls-9" d="M226.09,106.69l-9.27,2.3a17.26,17.26,0,0,0,21.38,17.76,17.66,17.66,0,0,0,3.09-1.09l-2.86-11.53A10.2,10.2,0,0,0,226.09,106.69Z"></path><path class="cls-5" d="M234.05,128.26a18.29,18.29,0,0,1-17.72-13.86,18.72,18.72,0,0,1-.51-5.47l.05-.73,10-2.48a11.21,11.21,0,0,1,13.55,8.17l3.06,12.34-.76.34a18.22,18.22,0,0,1-7.65,1.69Zm-16.26-18.48a17,17,0,0,0,.48,4.14A16.27,16.27,0,0,0,238,125.78a14.56,14.56,0,0,0,2.15-.7l-2.65-10.71a9.2,9.2,0,0,0-11.13-6.71Z"></path><circle class="cls-2" cx="130.83" cy="59.12" r="4.27"></circle><circle class="cls-2" cx="6.27" cy="90.39" r="6.27"></circle><circle class="cls-2" cx="184.41" cy="43.88" r="6.27"></circle><circle class="cls-2" cx="40.89" cy="44.83" r="6.27"></circle><circle class="cls-2" cx="99.36" cy="25.04" r="3.13"></circle><circle class="cls-2" cx="40.89" cy="2.45" r="2.45"></circle><path class="cls-2" d="M88.86,62.53h-6.5V56a2.38,2.38,0,1,0-4.76,0v6.5H71.1a2.38,2.38,0,1,0,0,4.76h6.5v6.5a2.38,2.38,0,1,0,4.76,0v-6.5h6.5a2.38,2.38,0,1,0,0-4.76Z"></path><circle class="cls-4" cx="264.33" cy="232.23" r="7.74"></circle><circle class="cls-4" cx="275.58" cy="215.52" r="4.27"></circle></g></g></g></svg> 