<?xml version="1.0" encoding="UTF-8"?> <svg xmlns="http://www.w3.org/2000/svg" viewBox="0 0 338.97 305.05"><defs><style>.cls-1{fill:#fff;}.cls-2{fill:#efeff0;}.cls-3,.cls-4{fill:#4b4b4b;}.cls-3{opacity:0.25;}.cls-5{fill:#62ab38;}.cls-6{fill:#dee1e7;}</style></defs><g id="Layer_2" data-name="Layer 2"><g id="Layer_1-2" data-name="Layer 1"><path class="cls-1" d="M54.79,277c-19.19,3.31-48.42-.7-53.33-26.9-6.07-32.43,7.84-45.29,22-54.39,10.22-6.59,22.48-9.75,32.12-17.18,29.27-22.56,23-73.84,53.31-94.93,13.23-9.19,30.48-10.14,46.53-8.74s32.11,4.79,48.13,3.08c12.27-1.31,24-5.57,35.58-9.8,10-3.66,20.15-7,30-11,52.52-21.08,90.74,46.85,57.28,80.92-14.21,14.47-22.42,34.16-26.71,54-3.8,17.59-4.57,37.68-17.73,49.95-10.15,9.47-25.07,11.51-38.94,11.67s-28.17-1-41.25,3.6C174.68,266.89,170,288.13,141.05,291,105.82,294.52,92.79,270.45,54.79,277Z"></path><circle class="cls-2" cx="290.5" cy="66.09" r="8.54"></circle><circle class="cls-2" cx="310.57" cy="72.37" r="4.65"></circle><circle class="cls-1" cx="186.71" cy="35.2" r="6.27"></circle><circle class="cls-1" cx="204.57" cy="2.45" r="2.45"></circle><circle class="cls-1" cx="56.33" cy="110.77" r="3.15"></circle><circle class="cls-1" cx="47.02" cy="147.81" r="7.33"></circle><circle class="cls-1" cx="47.02" cy="79.23" r="2.19"></circle><circle class="cls-1" cx="12.86" cy="108.03" r="2.93"></circle><circle class="cls-1" cx="4.42" cy="163.82" r="3.4"></circle><circle class="cls-1" cx="68.61" cy="285.66" r="3.4"></circle><path class="cls-1" d="M97.43,295.88H95.32v-2.11a2.36,2.36,0,1,0-4.71,0v2.11H88.5a2.36,2.36,0,1,0,0,4.71h2.11v2.11a2.36,2.36,0,0,0,4.71,0v-2.11h2.11a2.36,2.36,0,1,0,0-4.71Z"></path><path class="cls-1" d="M233.57,34.79h-6.5V28.28a2.38,2.38,0,0,0-4.76,0v6.51h-6.5a2.38,2.38,0,1,0,0,4.75h6.5v6.51a2.38,2.38,0,0,0,4.76,0V39.54h6.5a2.38,2.38,0,1,0,0-4.75Z"></path><path class="cls-3" d="M229.79,245.83a88.72,88.72,0,1,1,15.85-69.94"></path><path class="cls-2" d="M245.86,235.48a88.72,88.72,0,1,1,15.85-69.94"></path><path class="cls-4" d="M174.63,272.8a90.22,90.22,0,1,1,88.56-107.54l-2.95.57a87.23,87.23,0,1,0-15.58,68.75l2.4,1.79A90.68,90.68,0,0,1,174.63,272.8Z"></path><circle class="cls-2" cx="174.69" cy="183.65" r="87.65"></circle><path class="cls-4" d="M174.63,272.8a90.22,90.22,0,1,1,88.56-107.54l1,6.84h0a91.4,91.4,0,0,1,.61,10.48,90,90,0,0,1-13.84,48l-3.91,5.72A90.73,90.73,0,0,1,174.63,272.8Zm0-177.44a87.22,87.22,0,1,0,70,139.22l3.85-5.62a87,87,0,0,0,13.34-46.38,88.67,88.67,0,0,0-.47-9.09l-1.15-7.73A87.3,87.3,0,0,0,174.63,95.36Z"></path><path class="cls-4" d="M62.15,184.31a1,1,0,0,1-.85-.47,1,1,0,0,1,.32-1.38c6.81-4.26,14.73-8.66,23.52-13.07a1,1,0,0,1,.9,1.78c-8.74,4.39-16.6,8.76-23.36,13A1,1,0,0,1,62.15,184.31Z"></path><path class="cls-4" d="M59.16,225h0c-15.07-.75-23.69-4.22-25.62-10.31-2.32-7.34,5.79-17.44,23.44-29.2a1,1,0,0,1,1.39.27,1,1,0,0,1-.28,1.39C41.45,198.21,33.4,207.78,35.4,214.09c1.63,5.14,9.86,8.22,23.81,8.92a1,1,0,0,1-.05,2Z"></path><path class="cls-4" d="M65.46,225.15c-.88,0-1.75,0-2.61,0a1,1,0,0,1-1-1,1,1,0,0,1,1-1c4.54.09,9.59-.06,15-.43a1,1,0,0,1,1.06.93,1,1,0,0,1-.93,1.07C73.58,225,69.36,225.15,65.46,225.15Z"></path><path class="cls-5" d="M180.71,206.76c3.22-2.15,5.65-2.25,8.92-3.76a16.5,16.5,0,0,0,4.49-3.2,5.18,5.18,0,0,0,1.35-1.8,2,2,0,0,0-.3-2.12c-.37-.39-.95-.59-1.2-1.07-.42-.81.36-1.69,1-2.33,1.45-1.42,2.65-3.5,1.95-5.41-.81-2.21-3.53-2.86-5.62-3.95a11.82,11.82,0,0,1-4.88-5c-.88-1.65-1.43-3.52-2.66-4.94-1-1.15-2.36-1.92-3.43-3A8.26,8.26,0,0,1,178,165.1c0-.52,2.78-10.57,2.51-11s-5.73,2.41-8.1.81c0,0-2.84-8.39-3.39-8.21-1.61.52-4.91.46-5.75,3.66-.73,2.82,3.2,9.17,3,12.63-.25,3.67-2.51,6.88-2.28,9.73.09,1.14,4.48,3.76,4.7,4.88.84,4.28-.27,8.71.07,13a3,3,0,0,0,.44,1.57c.7,1,2.16.91,3.17,1.55A3.52,3.52,0,0,1,173.7,197a13.7,13.7,0,0,1-1.06,3.57c-1.37,3.71-5.61,7.4-5.33,11.34.08,1.11-1.05,6-.05,6.48s4.77-3.62,5.39-4.65,3.49-2.2,4-3.3a6.83,6.83,0,0,1,4.09-3.72"></path><path class="cls-4" d="M167.47,219.48a1.4,1.4,0,0,1-.64-.15c-1.25-.6-1.1-2.51-.69-5.59a14.56,14.56,0,0,0,.17-1.71c-.19-2.79,1.48-5.3,3.1-7.73a21.91,21.91,0,0,0,2.3-4l.22-.58a10,10,0,0,0,.77-2.73,2.58,2.58,0,0,0-.9-2.36,5,5,0,0,0-1.1-.43,4.12,4.12,0,0,1-2.34-1.37,4,4,0,0,1-.63-2.08,40.46,40.46,0,0,1,.09-5.73,27.48,27.48,0,0,0-.14-7.21,15.36,15.36,0,0,0-2.17-2.08c-1.36-1.18-2.21-1.93-2.48-2.63-.42-1.07.08-2.65.93-5.15a21.21,21.21,0,0,0,1.28-5c0-1.23-.69-3.28-1.4-5.25-1-2.72-2-5.53-1.54-7.55a1,1,0,0,1,.36-.56c.41-.33,4.08-3.19,6.05-3.83.95-.32,1.41-.45,4.37,8,7.66-1.19,7.91-.8,8.28-.22s.39.63-1.45,7.82c-.39,1.55-.84,3.3-.91,3.72a7.27,7.27,0,0,0,2.06,4.42,14.94,14.94,0,0,0,1.45,1.24,14.33,14.33,0,0,1,2,1.82,13.94,13.94,0,0,1,2,3.51c.25.55.49,1.09.77,1.61a10.89,10.89,0,0,0,4.45,4.54c.46.24,1,.46,1.46.68,1.82.8,3.88,1.7,4.64,3.81s-.09,4.42-2.19,6.47c-.93.9-.83,1.15-.83,1.15a1.61,1.61,0,0,0,.37.3,3.41,3.41,0,0,1,.66.53,3,3,0,0,1,.51,3.18,6,6,0,0,1-1.59,2.16,17.38,17.38,0,0,1-4.76,3.39,33.83,33.83,0,0,1-3.63,1.37,18.74,18.74,0,0,0-5.15,2.31,1.15,1.15,0,0,1-.25.12,5.77,5.77,0,0,0-3.48,3.17,6.21,6.21,0,0,1-2.46,2.22,7,7,0,0,0-1.57,1.2,20.25,20.25,0,0,1-2.69,3.11C169.36,218.82,168.31,219.48,167.47,219.48ZM164.2,150.9c-.15,1.5.73,3.93,1.52,6.1s1.59,4.39,1.52,6a22.05,22.05,0,0,1-1.39,5.54c-.44,1.32-1.12,3.3-1,3.79a14,14,0,0,0,1.92,1.83c1.64,1.41,2.65,2.32,2.83,3.22a29.85,29.85,0,0,1,.18,7.72,38.06,38.06,0,0,0-.1,5.44,2.4,2.4,0,0,0,.26,1.07,2.62,2.62,0,0,0,1.3.63,6.06,6.06,0,0,1,1.59.65,4.49,4.49,0,0,1,1.82,4.21,11.36,11.36,0,0,1-.9,3.28l-.21.56a22.51,22.51,0,0,1-2.51,4.45c-1.43,2.15-2.91,4.37-2.76,6.47a12.77,12.77,0,0,1-.19,2.12,23.06,23.06,0,0,0-.27,3.3,18.92,18.92,0,0,0,3.94-4,7.09,7.09,0,0,1,2.2-1.85,6.79,6.79,0,0,0,1.71-1.34,7.84,7.84,0,0,1,4.57-4.23,20.93,20.93,0,0,1,5.53-2.48,29.13,29.13,0,0,0,3.41-1.27,15.56,15.56,0,0,0,4.22-3,4.53,4.53,0,0,0,1.11-1.44,1.06,1.06,0,0,0-.09-1.07,3.1,3.1,0,0,0-.35-.27,2.89,2.89,0,0,1-1-1c-.81-1.55.65-3,1.2-3.52,1.18-1.14,2.24-2.89,1.71-4.35-.47-1.3-2-2-3.57-2.66-.54-.24-1.07-.48-1.57-.74a13,13,0,0,1-5.3-5.37c-.3-.56-.56-1.14-.82-1.73a8.92,8.92,0,0,0-3.46-4.58,16.24,16.24,0,0,1-1.64-1.4,9.34,9.34,0,0,1-2.64-5.75c0-.32.05-.67,1-4.3.46-1.77,1.15-4.48,1.43-5.87-1.42.09-4.32.47-6.83.87a1,1,0,0,1-1.1-.66c-1-2.8-2.19-6-2.8-7.3A35.78,35.78,0,0,0,164.2,150.9Zm16.51,55.86h0Z"></path><path class="cls-4" d="M82.15,224.38a1,1,0,0,1-1-.91,1,1,0,0,1,.91-1.09,369.18,369.18,0,0,0,38.29-5.54,1,1,0,0,1,.38,2,373.47,373.47,0,0,1-38.5,5.58Z"></path><path class="cls-4" d="M124.57,218a1,1,0,0,1-.2-2c4.08-.82,8.28-1.72,12.48-2.67a1,1,0,0,1,.44,2c-4.22.95-8.43,1.85-12.52,2.68Z"></path><path class="cls-4" d="M137.07,215.36a1,1,0,0,1-.23-2c13.63-3.21,35.94-9,54-14.7,9.71-3.07,26.3-8.93,35.08-12.12a1,1,0,0,1,1.29.6,1,1,0,0,1-.6,1.28c-8.8,3.2-25.43,9.07-35.17,12.15-18.09,5.72-40.46,11.51-54.12,14.74Z"></path><path class="cls-4" d="M226.24,188.5a1,1,0,0,1-.35-1.93c12.92-4.86,25.19-9.95,36.49-15.13a1,1,0,0,1,.83,1.82c-11.33,5.2-23.65,10.3-36.61,15.18A1.13,1.13,0,0,1,226.24,188.5Z"></path><path class="cls-4" d="M269.78,170.08a1,1,0,0,1-.43-1.9c3-1.42,5.9-2.87,8.72-4.31a1,1,0,1,1,.9,1.78c-2.83,1.45-5.78,2.9-8.76,4.33A.94.94,0,0,1,269.78,170.08Z"></path><path class="cls-4" d="M283.73,163.06a1,1,0,0,1-.89-.53,1,1,0,0,1,.42-1.36,237.85,237.85,0,0,0,22.85-13.63c15.27-10.49,22.62-19.59,20.71-25.63-1.85-5.85-12.53-9.07-30.09-9.07h-.21a1,1,0,0,1,0-2c18.89-.06,30,3.59,32.21,10.47,2.23,7-5.2,16.69-21.49,27.88a239.55,239.55,0,0,1-23.05,13.75A1,1,0,0,1,283.73,163.06Z"></path><path class="cls-4" d="M268.47,114.85a1,1,0,0,1-.12-2c8-1,15.44-1.65,22.11-1.9a1,1,0,0,1,.07,2c-6.6.25-14,.88-21.93,1.88Z"></path><path class="cls-4" d="M238.06,119.88a1,1,0,0,1-1-.8,1,1,0,0,1,.79-1.18c9.23-1.85,18.1-3.37,26.37-4.5a1,1,0,0,1,1.12.85,1,1,0,0,1-.85,1.13c-8.23,1.13-17.06,2.64-26.25,4.48A.65.65,0,0,1,238.06,119.88Z"></path><path class="cls-4" d="M31.56,186a1,1,0,0,1-.76-1.65c4.23-5,11.36-10.23,21.18-15.67,1.55-.86,3.2-1.74,4.92-2.62a296.68,296.68,0,0,1,33.89-14.46,1,1,0,0,1,.68,1.88,295.21,295.21,0,0,0-33.66,14.36c-1.7.87-3.33,1.74-4.86,2.59-9.62,5.32-16.56,10.44-20.63,15.22A1,1,0,0,1,31.56,186Z"></path><path class="cls-4" d="M52.05,210.57l-.17,0c-15.5-2.66-24.06-7.45-25.44-14.24a11.94,11.94,0,0,1,1.86-8.53,1,1,0,0,1,1.37-.35,1,1,0,0,1,.35,1.38,10,10,0,0,0-1.62,7.1c1.18,5.81,9.42,10.19,23.82,12.67a1,1,0,0,1-.17,2Z"></path><path class="cls-4" d="M72.12,212.57h0A169.69,169.69,0,0,1,54.67,211a1,1,0,0,1,.29-2c5.1.75,10.89,1.27,17.21,1.56a1,1,0,0,1,0,2Z"></path><path class="cls-4" d="M84,212.83q-3.09,0-6.07-.06a1,1,0,1,1,0-2c29.86.63,68.36-3.53,108.42-11.69,11.16-2.27,28.64-6.52,37.65-8.81a1,1,0,1,1,.5,1.93c-9,2.31-26.55,6.56-37.75,8.84C149.3,208.69,113.1,212.83,84,212.83Z"></path><path class="cls-4" d="M224.34,192.24a1,1,0,0,1-.26-2c16.74-4.45,32.35-9.36,46.4-14.58a1,1,0,1,1,.7,1.87c-14.11,5.25-29.78,10.17-46.58,14.64A.82.82,0,0,1,224.34,192.24Z"></path><path class="cls-4" d="M277,175.26a1,1,0,0,1-.37-1.93c7.94-3.11,15.22-6.3,21.65-9.46a1,1,0,0,1,.89,1.79c-6.48,3.19-13.82,6.4-21.81,9.53A.92.92,0,0,1,277,175.26Z"></path><path class="cls-4" d="M302.53,163.85a1,1,0,0,1-.46-1.89c2.94-1.53,5.71-3.07,8.23-4.58a1,1,0,0,1,1.37.35,1,1,0,0,1-.34,1.37c-2.56,1.53-5.36,3.09-8.34,4.64A1.07,1.07,0,0,1,302.53,163.85Z"></path><path class="cls-4" d="M313.58,157.54a1,1,0,0,1-.84-.46,1,1,0,0,1,.3-1.38,87.38,87.38,0,0,0,7.46-5.26,1,1,0,0,1,1.25,1.57,90.76,90.76,0,0,1-7.63,5.37A1,1,0,0,1,313.58,157.54Z"></path><path class="cls-4" d="M324.36,149.46a1,1,0,0,1-.68-1.74c5.41-5,7.75-9.52,7-13.41s-4.95-7.32-12.28-9.84a1,1,0,0,1,.65-1.89c8.05,2.77,12.62,6.58,13.59,11.33s-1.6,9.76-7.56,15.28A1,1,0,0,1,324.36,149.46Z"></path><circle class="cls-2" cx="212.11" cy="218.61" r="6.55"></circle><path class="cls-4" d="M210,246.61h-.11a1,1,0,0,1-.67-.37l-9.12-11.46a1,1,0,0,1,.16-1.41l18-14.28a.94.94,0,0,1,.74-.21,1,1,0,0,1,.67.37l9.12,11.46a1,1,0,0,1-.16,1.4l-18,14.29A1,1,0,0,1,210,246.61Zm-7.72-12.3,7.88,9.89,16.39-13-7.87-9.9Z"></path><path class="cls-6" d="M227,234.35l40,44.07c1.66,2.09,4.8,11.29-2.6,17.18h0c-9,7.15-15.67.77-17.33-1.32l-34-48.86"></path><path class="cls-4" d="M256.12,299.89a11.55,11.55,0,0,1-3.43-.53,14.12,14.12,0,0,1-6.39-4.46l-34-48.91a1,1,0,0,1,1.65-1.14l34,48.86a12.3,12.3,0,0,0,5.41,3.74c3.39,1.09,6.92.2,10.48-2.63a11.11,11.11,0,0,0,4.32-9.21,12.57,12.57,0,0,0-1.88-6.57l-39.94-44a1,1,0,0,1,.07-1.41,1,1,0,0,1,1.42.06l40,44.08a14.23,14.23,0,0,1,2.36,7.82A13.06,13.06,0,0,1,265,296.39,14.24,14.24,0,0,1,256.12,299.89Z"></path><path class="cls-3" d="M249.46,287.9,218.8,245.41l3.22-2.65,29.13,40.37c8,12.83,14.75,5.26,11.53,7.91C256.25,296.34,251,289.71,249.46,287.9Z"></path><path class="cls-3" d="M218.58,150.13A54.71,54.71,0,1,0,209.83,227,54.7,54.7,0,0,0,218.58,150.13ZM204.3,220.06a45.84,45.84,0,1,1,7.33-64.41A45.83,45.83,0,0,1,204.3,220.06Z"></path><path class="cls-4" d="M175.82,239.88a55.68,55.68,0,1,1,34.63-12.1A55.64,55.64,0,0,1,175.82,239.88Zm-.11-109.38a53.69,53.69,0,1,0,42.08,20.25h0A53.63,53.63,0,0,0,175.71,130.5Z"></path><path class="cls-4" d="M175.86,231a48.82,48.82,0,0,1-5.39-.3A46.84,46.84,0,1,1,212.41,155h0a46.84,46.84,0,0,1-36.55,76Zm-.14-91.66a44.82,44.82,0,1,0,35.13,16.9A44.61,44.61,0,0,0,175.72,139.37Z"></path><path class="cls-4" d="M315.3,123.48l-.26,0a86.6,86.6,0,0,0-8.53-1.86,1,1,0,0,1-.82-1.15,1,1,0,0,1,1.15-.82c3.18.54,6.11,1.18,8.73,1.9a1,1,0,0,1-.27,2Z"></path><path class="cls-4" d="M237.8,121.29a1,1,0,0,1-.1-2c26.39-2.47,49.17-2.53,65.87-.18a1,1,0,0,1,.85,1.13,1,1,0,0,1-1.13.85c-16.55-2.33-39.16-2.26-65.4.19Z"></path><path class="cls-4" d="M156.86,96.64a1,1,0,0,1-1-.81L149.67,64a1,1,0,0,1,.79-1.18,1,1,0,0,1,1.17.79l6.21,31.85a1,1,0,0,1-.79,1.17Z"></path><path class="cls-4" d="M197,302.36a1,1,0,0,1-1-.81l-5.87-30.06a1,1,0,0,1,2-.38L198,301.17a1,1,0,0,1-.79,1.17A.65.65,0,0,1,197,302.36Z"></path><path class="cls-4" d="M217.09,303.3H120.55a1.5,1.5,0,0,1,0-3h96.54a1.5,1.5,0,0,1,0,3Z"></path><circle class="cls-5" cx="153.76" cy="77.19" r="5.99"></circle><path class="cls-4" d="M153.76,84.18a7,7,0,1,1,7-7A7,7,0,0,1,153.76,84.18Zm0-12a5,5,0,1,0,5,5A5,5,0,0,0,153.76,72.2Z"></path><path class="cls-4" d="M117.91,250.16a17.85,17.85,0,0,1-3-.28,1.5,1.5,0,1,1,.5-3c7.42,1.27,8.51-2.59,9.69-9a19.19,19.19,0,0,1,2-6.49l-13.1-11.1c-2.23-1.89-5.29-4.48-6.18-8.14-1-4,.86-7.9,2.57-10.89l.61-1c1.52-2.61,3-5.08,3.13-7.77a6.13,6.13,0,0,0-1.64-4.51,3.28,3.28,0,0,0-2.47-1.09,8.22,8.22,0,0,0-1.29.19,5.6,5.6,0,0,1-4-.29c-2.35-1.38-2-4-1.71-6A8.66,8.66,0,0,0,103,178c-.29-1.28-1.61-2.12-3.14-3.1a11.75,11.75,0,0,1-4-3.5c-2.09-3.39-.46-7.55,1.57-10.08a33.15,33.15,0,0,1,2.94-3.08,24.22,24.22,0,0,0,3.17-3.45c4.45-6.39,1.39-15.37-2.19-23.32a1.5,1.5,0,0,1,2.74-1.23c3.92,8.72,7.22,18.65,1.91,26.26a26.7,26.7,0,0,1-3.56,3.91,29,29,0,0,0-2.67,2.79c-1.53,1.91-2.55,4.7-1.36,6.63a9.38,9.38,0,0,0,3,2.54c1.82,1.17,3.88,2.48,4.44,5a10.68,10.68,0,0,1-.07,3.91c-.27,1.93-.27,2.67.25,3a3.35,3.35,0,0,0,2-.07,11.63,11.63,0,0,1,1.73-.24,6.29,6.29,0,0,1,4.74,2,9.17,9.17,0,0,1,2.5,6.8c-.22,3.4-1.91,6.3-3.54,9.09l-.59,1c-1.44,2.5-3,5.75-2.27,8.69.62,2.51,2.72,4.46,5.21,6.57l14.21,12a1.48,1.48,0,0,1,.53,1.12,1.5,1.5,0,0,1-.49,1.14c-1.17,1.06-1.62,3.51-2.1,6.12C127.11,243.49,125.88,250.16,117.91,250.16Z"></path><path class="cls-3" d="M115.14,248.4c14,2.39,9.43-13,14-17.14l-14.21-12c-2.41-2-5-4.29-5.7-7.35-.82-3.35.71-6.8,2.43-9.79s3.71-6,3.93-9.46-2.23-7.34-5.67-7.2c-1.54.06-3.2.88-4.52.1-2.4-1.4-.27-5.14-.89-7.85-.76-3.37-5.47-4.11-7.28-7-1.59-2.57-.43-6,1.46-8.36s4.44-4.14,6.17-6.61c5-7.14,1.52-16.86-2-24.79L88.47,161.31l-1.43,33,7.41,26.29,12.21,18.3Z"></path><path class="cls-4" d="M184.65,117a10.92,10.92,0,0,1-3.92-.71c-3.84-1.46-6.8-5.38-7.73-10.22-.8-4.18-.14-8.5.44-12.31a1.5,1.5,0,0,1,3,.45c-.57,3.75-1.16,7.62-.45,11.29.57,3,2.41,6.68,5.84,8,4,1.52,8.24-.6,12.73-2.85,4.7-2.36,9.56-4.79,14.69-3.28a20.69,20.69,0,0,1,3.48,1.53l.7.36a38.59,38.59,0,0,0,18.27,4.21h0a1.5,1.5,0,0,1,0,3A42.22,42.22,0,0,1,212,111.92l-.73-.37a16.45,16.45,0,0,0-2.94-1.32c-4-1.18-8.12.89-12.5,3.08C192.22,115.13,188.49,117,184.65,117Z"></path><path class="cls-3" d="M231.69,115a40.45,40.45,0,0,1-19-4.37,24.36,24.36,0,0,0-3.93-1.79c-9.28-2.75-18.47,9.53-27.52,6.1-3.7-1.41-6-5.22-6.79-9.11s-.15-7.88.45-11.79l14.84,1.33,13.15,3.14,16.64,6.28Z"></path></g></g></svg> 