<?xml version="1.0" encoding="UTF-8"?> <svg xmlns="http://www.w3.org/2000/svg" viewBox="0 0 330.71 294.73"><defs><style>.cls-1,.cls-4{fill:#4b4b4b;}.cls-1{opacity:0.25;}.cls-2{fill:#efeff0;}.cls-3{fill:#62ab38;}.cls-5{fill:#dee1e7;}.cls-6{fill:#fff;}.cls-7{fill:none;}</style></defs><g id="Layer_2" data-name="Layer 2"><g id="Layer_1-2" data-name="Layer 1"><path class="cls-1" d="M240.78,76.86c0-39.16,35.81-12.64,34.68-50.22H154.2c1.13,37.58-34.68,11.06-34.68,50.22V205.4H240.9Z"></path><path class="cls-2" d="M291.69,220.43c33.94,37.42-16.56,100.62-81.15,62.48-31.82-18.79-72.59,13-108.39,3.85-47.48-12.2-46.66-63.81-58.81-74.4C-46,134.45,20.86,47.89,81.91,68.17c17.08,5.67,33.52-17.8,51.12-14,13.57,2.9,23.78,14,31.85,25.26s17.6-.82,28.89,7.24c23.39,16.72,43.52,5.53,64.65,25.58C297.66,149.43,265.79,191.87,291.69,220.43Z"></path><rect class="cls-3" x="64.67" y="206.4" width="208.68" height="13.72" rx="5.92"></rect><path class="cls-4" d="M266.81,221.38H71.21a7.79,7.79,0,0,1-7.79-7.79v-.65a7.79,7.79,0,0,1,7.79-7.79h195.6a7.8,7.8,0,0,1,7.8,7.79v.65A7.8,7.8,0,0,1,266.81,221.38ZM71.21,207.66a5.29,5.29,0,0,0-5.28,5.28v.65a5.29,5.29,0,0,0,5.28,5.28h195.6a5.29,5.29,0,0,0,5.28-5.28v-.65a5.29,5.29,0,0,0-5.28-5.28Z"></path><polygon class="cls-3" points="246.72 233.82 91.31 233.82 75.74 220.12 262.28 220.12 246.72 233.82"></polygon><path class="cls-4" d="M246.72,235.08H91.3a1.27,1.27,0,0,1-.83-.31l-15.56-13.7a1.26,1.26,0,0,1,.84-2.2H262.28a1.25,1.25,0,0,1,1.18.81,1.26,1.26,0,0,1-.35,1.39l-15.56,13.7A1.27,1.27,0,0,1,246.72,235.08ZM91.78,232.56H246.24L259,221.38H79.08Z"></path><path class="cls-5" d="M85.16,81.47h167.7a9.42,9.42,0,0,1,9.42,9.42V199a7.42,7.42,0,0,1-7.42,7.42H83.16A7.42,7.42,0,0,1,75.74,199V90.89A9.42,9.42,0,0,1,85.16,81.47Z"></path><path class="cls-4" d="M262.28,207.66H75.75a1.25,1.25,0,0,1-1.26-1.26V91.54A11.34,11.34,0,0,1,85.81,80.21h166.4a11.34,11.34,0,0,1,11.33,11.33V206.4A1.25,1.25,0,0,1,262.28,207.66ZM77,205.15H261V91.54a8.82,8.82,0,0,0-8.81-8.81H85.81A8.82,8.82,0,0,0,77,91.54Z"></path><rect class="cls-6" x="115.99" y="60.11" width="106.04" height="167.64" transform="translate(312.95 -25.08) rotate(90)"></rect><path class="cls-4" d="M252.83,198.21H85.19A1.25,1.25,0,0,1,83.94,197v-106a1.25,1.25,0,0,1,1.25-1.26H252.83a1.25,1.25,0,0,1,1.26,1.26V197A1.25,1.25,0,0,1,252.83,198.21ZM86.45,195.7H251.58V92.18H86.45Z"></path><path class="cls-6" d="M230.27,68.25c0-39.16,35.81-12.64,34.68-50.22H143.68C144.81,55.61,109,29.09,109,68.25V196.79H230.39Z"></path><path class="cls-4" d="M230.38,198.29H109a1.5,1.5,0,0,1-1.5-1.5V68.25c0-20.81,10.08-24.2,19-27.19,8.71-2.93,16.22-5.45,15.69-23a1.5,1.5,0,0,1,1.5-1.54H265a1.5,1.5,0,0,1,1.5,1.45c.59,19.76-8.73,22.89-17.74,25.92-8.71,2.93-16.94,5.69-16.94,24.35l.11,128.54a1.47,1.47,0,0,1-1.5,1.5Zm-119.87-3H228.88l-.11-127h0c0-20.81,10.09-24.2,19-27.19,8.45-2.85,15.79-5.31,15.71-21.53H145.21c.07,18.38-9,21.42-17.76,24.37s-17,5.69-16.94,24.35Z"></path><circle class="cls-7" cx="65.87" cy="142.18" r="3.91"></circle><path class="cls-3" d="M133.75,79.4a15,15,0,1,1,15-15A15,15,0,0,1,133.75,79.4Zm0-27.77a12.79,12.79,0,1,0,12.79,12.79A12.8,12.8,0,0,0,133.75,51.63Z"></path><path class="cls-4" d="M219.53,61.63H159.58a1.1,1.1,0,1,1,0-2.2h59.95a1.1,1.1,0,0,1,0,2.2Z"></path><path class="cls-4" d="M212.64,69.41H159.58a1.11,1.11,0,0,1,0-2.21h53.06a1.11,1.11,0,0,1,0,2.21Z"></path><path class="cls-3" d="M133.75,114.42a15,15,0,1,1,15-15A15,15,0,0,1,133.75,114.42Zm0-27.78a12.79,12.79,0,1,0,12.79,12.79A12.8,12.8,0,0,0,133.75,86.64Z"></path><path class="cls-4" d="M219.44,96.64H159.58a1.1,1.1,0,1,1,0-2.2h59.86a1.1,1.1,0,0,1,0,2.2Z"></path><path class="cls-4" d="M193.3,104.42H159.58a1.1,1.1,0,0,1,0-2.2H193.3a1.1,1.1,0,1,1,0,2.2Z"></path><path class="cls-3" d="M133.75,149.43a15,15,0,1,1,15-15A15,15,0,0,1,133.75,149.43Zm0-27.77a12.79,12.79,0,1,0,12.79,12.79A12.8,12.8,0,0,0,133.75,121.66Z"></path><path class="cls-4" d="M219.53,131.66H159.58a1.11,1.11,0,0,1,0-2.21h59.95a1.11,1.11,0,0,1,0,2.21Z"></path><path class="cls-4" d="M212.64,139.44H159.58a1.11,1.11,0,0,1,0-2.21h53.06a1.11,1.11,0,0,1,0,2.21Z"></path><path class="cls-3" d="M133.75,184.45a15,15,0,1,1,15-15A15,15,0,0,1,133.75,184.45Zm0-27.78a12.79,12.79,0,1,0,12.79,12.79A12.8,12.8,0,0,0,133.75,156.67Z"></path><path class="cls-4" d="M219.53,166.67H159.58a1.1,1.1,0,0,1,0-2.2h59.95a1.1,1.1,0,0,1,0,2.2Z"></path><path class="cls-4" d="M212.64,174.45H159.58a1.1,1.1,0,0,1,0-2.2h53.06a1.1,1.1,0,1,1,0,2.2Z"></path><path class="cls-3" d="M130.74,70.35A1.1,1.1,0,0,1,130,70l-3.64-3.64a1.09,1.09,0,0,1,0-1.55,1.1,1.1,0,0,1,1.56,0l2.86,2.85,8.88-8.89a1.1,1.1,0,0,1,1.56,1.56L131.51,70A1.09,1.09,0,0,1,130.74,70.35Z"></path><path class="cls-3" d="M130.74,105.36A1.06,1.06,0,0,1,130,105l-3.64-3.63a1.1,1.1,0,0,1,1.56-1.56l2.86,2.86,8.88-8.89a1.1,1.1,0,0,1,1.56,1.56L131.51,105A1.05,1.05,0,0,1,130.74,105.36Z"></path><path class="cls-3" d="M130.74,140.38a1.1,1.1,0,0,1-.78-.32l-3.64-3.64a1.09,1.09,0,0,1,0-1.55,1.1,1.1,0,0,1,1.56,0l2.86,2.85,8.88-8.89a1.1,1.1,0,0,1,1.56,1.56l-9.67,9.67A1.09,1.09,0,0,1,130.74,140.38Z"></path><path class="cls-3" d="M130.74,175.39a1.06,1.06,0,0,1-.78-.32l-3.64-3.63a1.1,1.1,0,0,1,1.56-1.56l2.86,2.85,8.88-8.88a1.1,1.1,0,0,1,1.56,1.56l-9.67,9.66A1.05,1.05,0,0,1,130.74,175.39Z"></path><circle class="cls-6" cx="87.25" cy="251.83" r="5.54"></circle><circle class="cls-6" cx="106.48" cy="250.08" r="2.52"></circle><path class="cls-2" d="M322.19,124.91h-3.82v-3.82a4.26,4.26,0,1,0-8.51,0v3.82H306a4.26,4.26,0,1,0,0,8.51h3.82v3.82a4.26,4.26,0,0,0,8.51,0v-3.82h3.82a4.26,4.26,0,0,0,0-8.51Z"></path><circle class="cls-2" cx="61.66" cy="34.15" r="4.27"></circle><circle class="cls-2" cx="94.51" cy="48.64" r="4.27"></circle><circle class="cls-2" cx="326.44" cy="81.47" r="4.27"></circle><circle class="cls-2" cx="281.47" cy="96.72" r="6.27"></circle><circle class="cls-2" cx="299.33" cy="57.96" r="2.45"></circle><circle class="cls-2" cx="98.78" cy="8.54" r="8.54"></circle><circle class="cls-2" cx="116.63" cy="27.75" r="2.13"></circle><circle class="cls-6" cx="98.9" cy="268.53" r="4.26"></circle><circle class="cls-6" cx="118" cy="264.27" r="2.52"></circle></g></g></svg> 